<?xml version="1.0" encoding="utf-8"?>
<!-- Generator: Adobe Illustrator 15.0.2, SVG Export Plug-In . SVG Version: 6.00 Build 0)  -->
<!DOCTYPE svg PUBLIC "-//W3C//DTD SVG 1.0//EN" "http://www.w3.org/TR/2001/REC-SVG-20010904/DTD/svg10.dtd">
<svg version="1.0" id="Layer_1" xmlns="http://www.w3.org/2000/svg" xmlns:xlink="http://www.w3.org/1999/xlink" x="0px" y="0px"
	 width="153px" height="40px" viewBox="0 0 153 40" enable-background="new 0 0 153 40" xml:space="preserve">
<polygon fill="#FB0E1D" points="143,40.049 0,40.049 0,0.049 143,0.049 153,19.86 "/>
<g>
	<g>
		<path fill="#FFFFFF" d="M33.753,28.656V12.371c0-0.521-0.423-0.944-0.945-0.944H20.645c-0.522,0-0.945,0.423-0.945,0.944v16.287
			c0,0.521,0.423,0.945,0.945,0.945h12.163C33.33,29.6,33.753,29.18,33.753,28.656z M23.573,27.43c0,0.26-0.212,0.475-0.473,0.475
			h-1.091c-0.261,0-0.473-0.215-0.473-0.475v-1.092c0-0.26,0.211-0.471,0.473-0.471H23.1c0.261,0,0.473,0.211,0.473,0.471V27.43z
			 M23.573,24.627c0,0.26-0.212,0.473-0.473,0.473h-1.091c-0.261,0-0.473-0.213-0.473-0.473v-1.09c0-0.26,0.211-0.473,0.473-0.473
			H23.1c0.261,0,0.473,0.213,0.473,0.473V24.627z M23.573,21.824c0,0.26-0.212,0.473-0.473,0.473h-1.091
			c-0.261,0-0.473-0.213-0.473-0.473v-1.091c0-0.262,0.211-0.474,0.473-0.474H23.1c0.261,0,0.473,0.211,0.473,0.474V21.824z
			 M23.573,19.02c0,0.261-0.212,0.473-0.473,0.473h-1.091c-0.261,0-0.473-0.212-0.473-0.473v-1.09c0-0.261,0.211-0.473,0.473-0.473
			H23.1c0.261,0,0.473,0.211,0.473,0.473V19.02z M26.357,27.43c0,0.26-0.211,0.475-0.472,0.475h-1.091
			c-0.261,0-0.473-0.215-0.473-0.475v-1.092c0-0.26,0.212-0.471,0.473-0.471h1.091c0.261,0,0.472,0.211,0.472,0.471V27.43z
			 M26.357,24.627c0,0.26-0.211,0.473-0.472,0.473h-1.091c-0.261,0-0.473-0.213-0.473-0.473v-1.09c0-0.26,0.212-0.473,0.473-0.473
			h1.091c0.261,0,0.472,0.213,0.472,0.473V24.627z M26.357,21.824c0,0.26-0.211,0.473-0.472,0.473h-1.091
			c-0.261,0-0.473-0.213-0.473-0.473v-1.091c0-0.262,0.212-0.474,0.473-0.474h1.091c0.261,0,0.472,0.211,0.472,0.474V21.824z
			 M26.357,19.02c0,0.261-0.211,0.473-0.472,0.473h-1.091c-0.261,0-0.473-0.212-0.473-0.473v-1.09c0-0.261,0.212-0.473,0.473-0.473
			h1.091c0.261,0,0.472,0.211,0.472,0.473V19.02z M29.142,27.43c0,0.26-0.212,0.475-0.473,0.475h-1.088
			c-0.261,0-0.473-0.215-0.473-0.475v-1.092c0-0.26,0.212-0.471,0.473-0.471h1.091c0.261,0,0.473,0.211,0.473,0.471v1.092H29.142z
			 M29.142,24.627c0,0.26-0.212,0.473-0.473,0.473h-1.088c-0.261,0-0.473-0.213-0.473-0.473v-1.09c0-0.26,0.212-0.473,0.473-0.473
			h1.091c0.261,0,0.473,0.213,0.473,0.473v1.09H29.142z M29.142,21.824c0,0.26-0.212,0.473-0.473,0.473h-1.088
			c-0.261,0-0.473-0.213-0.473-0.473v-1.091c0-0.262,0.212-0.474,0.473-0.474h1.091c0.261,0,0.473,0.211,0.473,0.474v1.091H29.142z
			 M29.142,19.02c0,0.261-0.212,0.473-0.473,0.473h-1.088c-0.261,0-0.473-0.212-0.473-0.473v-1.09c0-0.261,0.212-0.473,0.473-0.473
			h1.091c0.261,0,0.473,0.211,0.473,0.473v1.09H29.142z M31.927,27.43c0,0.26-0.212,0.475-0.473,0.475h-1.091
			c-0.261,0-0.473-0.215-0.473-0.475v-3.893c0-0.26,0.212-0.473,0.473-0.473h1.091c0.261,0,0.473,0.213,0.473,0.473V27.43z
			 M31.927,21.824c0,0.26-0.212,0.473-0.473,0.473h-1.091c-0.261,0-0.473-0.213-0.473-0.473v-1.091c0-0.262,0.212-0.474,0.473-0.474
			h1.091c0.261,0,0.473,0.211,0.473,0.474V21.824z M31.927,19.02c0,0.261-0.212,0.473-0.473,0.473h-1.091
			c-0.261,0-0.473-0.212-0.473-0.473v-1.09c0-0.261,0.212-0.473,0.473-0.473h1.091c0.261,0,0.473,0.211,0.473,0.473V19.02z
			 M31.927,15.215c0,0.261-0.212,0.472-0.473,0.472h-9.458c-0.261,0-0.473-0.211-0.473-0.472V13.58c0-0.261,0.212-0.473,0.473-0.473
			h9.458c0.261,0,0.473,0.212,0.473,0.473V15.215z"/>
	</g>
</g>
<g>
	<path fill="#FFFFFF" d="M49.462,16.504c1.511,0,2.675,0.756,3.202,1.859l-1.271,0.875c-0.396-0.959-1.259-1.271-1.979-1.271
		c-1.571,0-2.363,1.475-2.363,2.831c0,1.511,0.983,2.878,2.399,2.878c0.731,0,1.607-0.372,1.991-1.296l1.355,0.78
		c-0.516,1.271-2.063,1.979-3.395,1.979c-2.362,0-4.018-2.23-4.018-4.39C45.384,18.675,46.883,16.504,49.462,16.504z"/>
	<path fill="#FFFFFF" d="M54.384,25.068l3.358-8.516h1.343l3.346,8.516h-1.751l-0.779-2.123h-2.986l-0.78,2.123H54.384z
		 M58.414,18.339l-1.223,3.442h2.411L58.414,18.339z"/>
	<path fill="#FFFFFF" d="M64.788,25.068v-8.516h1.655v7.064h4.342v1.451H64.788z"/>
	<path fill="#FFFFFF" d="M76.87,16.504c1.511,0,2.675,0.756,3.203,1.859l-1.271,0.875c-0.396-0.959-1.26-1.271-1.979-1.271
		c-1.571,0-2.363,1.475-2.363,2.831c0,1.511,0.983,2.878,2.399,2.878c0.732,0,1.607-0.372,1.991-1.296l1.355,0.78
		c-0.517,1.271-2.063,1.979-3.395,1.979c-2.362,0-4.018-2.23-4.018-4.39C72.792,18.675,74.291,16.504,76.87,16.504z"/>
	<path fill="#FFFFFF" d="M88.449,20.895v-4.342h1.643v4.342c0,2.326-1.092,4.233-3.719,4.233c-2.722,0-3.729-2.026-3.729-4.233
		v-4.342h1.655v4.342c0,1.427,0.516,2.77,2.063,2.77C87.945,23.664,88.449,22.285,88.449,20.895z"/>
	<path fill="#FFFFFF" d="M93.192,25.068v-8.516h1.655v7.064h4.342v1.451H93.192z"/>
	<path fill="#FFFFFF" d="M100.836,25.068l3.359-8.516h1.343l3.347,8.516h-1.752l-0.779-2.123h-2.986l-0.779,2.123H100.836z
		 M104.866,18.339l-1.224,3.442h2.411L104.866,18.339z"/>
	<path fill="#FFFFFF" d="M116.816,18.004h-2.71v7.064h-1.655v-7.064h-2.723v-1.451h7.088V18.004z"/>
	<path fill="#FFFFFF" d="M125.24,23.617v1.451h-5.912v-8.516h5.805v1.451h-4.149v2.051h3.586v1.344h-3.586v2.219H125.24z"/>
</g>
</svg>
