<?xml version="1.0" encoding="utf-8"?>
<!-- Generator: Adobe Illustrator 15.0.2, SVG Export Plug-In . SVG Version: 6.00 Build 0)  -->
<!DOCTYPE svg PUBLIC "-//W3C//DTD SVG 1.0//EN" "http://www.w3.org/TR/2001/REC-SVG-20010904/DTD/svg10.dtd">
<svg version="1.0" id="Capa_1" xmlns="http://www.w3.org/2000/svg" xmlns:xlink="http://www.w3.org/1999/xlink" x="0px" y="0px"
	 width="14px" height="11.822px" viewBox="208.443 209.532 14 11.822" enable-background="new 208.443 209.532 14 11.822"
	 xml:space="preserve">
<g>
	<path fill="#B0B0B0" d="M222.43,213.493c-0.023-0.083-0.078-0.153-0.153-0.195l-2.432-1.356v-1.476c0-0.18-0.146-0.325-0.325-0.325
		h-1.134c-0.18,0-0.325,0.146-0.325,0.325v0.48l-2.46-1.372c-0.098-0.055-0.218-0.055-0.316,0l-6.675,3.724
		c-0.075,0.042-0.13,0.112-0.154,0.195c-0.024,0.083-0.013,0.172,0.029,0.247l0.553,0.991c0.087,0.157,0.285,0.213,0.442,0.125
		l0.88-0.489v6.678c0,0.171,0.138,0.309,0.308,0.309h3.086c0.17,0,0.308-0.138,0.308-0.309v-2.988c0-0.087,0.071-0.158,0.158-0.158
		h2.449c0.087,0,0.157,0.071,0.157,0.158v2.988c0,0.171,0.138,0.309,0.309,0.309h3.086c0.17,0,0.308-0.138,0.308-0.309v-6.678
		l0.88,0.489c0.156,0.087,0.354,0.031,0.442-0.125l0.553-0.991C222.444,213.665,222.454,213.576,222.43,213.493z"/>
</g>
</svg>
