<?xml version="1.0" encoding="utf-8"?>
<!-- Generator: Adobe Illustrator 15.0.2, SVG Export Plug-In . SVG Version: 6.00 Build 0)  -->
<!DOCTYPE svg PUBLIC "-//W3C//DTD SVG 1.0//EN" "http://www.w3.org/TR/2001/REC-SVG-20010904/DTD/svg10.dtd">
<svg version="1.0" id="_x30_1" xmlns="http://www.w3.org/2000/svg" xmlns:xlink="http://www.w3.org/1999/xlink" x="0px" y="0px"
	 width="309px" height="63px" viewBox="0 0 309 63" enable-background="new 0 0 309 63" xml:space="preserve">
<g>
	<polygon fill-rule="evenodd" clip-rule="evenodd" fill="#FFFFFF" points="297,63 143.734,63 156.083,31.75 143.734,0.004 
		297,0.004 309,31.563 	"/>
	<path fill="#ED2027" d="M295.069,2.804l10.935,28.757L295.071,60.2h-147.22l10.836-27.421l0.403-1.021l-0.398-1.023L147.828,2.804
		H295.069 M297,0.004H143.734l12.349,31.746L143.734,63H297l12-31.438L297,0.004L297,0.004z"/>
</g>
<g>
	<polygon fill-rule="evenodd" clip-rule="evenodd" fill="#ED2027" points="138.25,63.061 0,63.061 0,0.065 138.25,0.065 
		150.25,31.624 	"/>
</g>
<g>
	<path fill-rule="evenodd" clip-rule="evenodd" fill="#FFFFFF" d="M189.921,12.5c10.312,0,18.671,8.507,18.671,19
		c0,10.493-8.359,19-18.671,19s-18.671-8.507-18.671-19C171.25,21.006,179.609,12.5,189.921,12.5z"/>
	<path fill="#ED2027" d="M189.921,15.299c8.751,0,15.871,7.268,15.871,16.201c0,8.933-7.12,16.2-15.871,16.2
		s-15.871-7.268-15.871-16.2C174.05,22.567,181.17,15.299,189.921,15.299 M189.921,12.5c-10.312,0-18.671,8.507-18.671,19
		c0,10.493,8.359,19,18.671,19s18.671-8.507,18.671-19C208.592,21.006,200.232,12.5,189.921,12.5L189.921,12.5z"/>
</g>
<path fill="#FFFFFF" d="M32.921,15c8.917,0,16.171,7.402,16.171,16.5c0,9.098-7.254,16.5-16.171,16.5S16.75,40.598,16.75,31.5
	C16.75,22.401,24.004,15,32.921,15 M32.921,12.5c-10.312,0-18.671,8.507-18.671,19c0,10.493,8.359,19,18.671,19
	s18.671-8.507,18.671-19C51.592,21.006,43.232,12.5,32.921,12.5L32.921,12.5z"/>
<g>
	<path fill="#FFFFFF" d="M65.723,22.283c-0.216-0.24-1.271-0.839-2.291-0.839c-0.899,0-1.355,0.348-1.355,0.959
		c0,0.696,0.66,0.875,1.943,1.211c1.679,0.432,2.735,0.959,2.735,2.519c0,1.835-1.476,2.53-3.154,2.53
		c-1.271,0-2.591-0.408-3.574-1.103l0.731-1.427c0.288,0.288,1.571,1.043,2.867,1.043c0.899,0,1.367-0.312,1.367-0.875
		c0-0.756-0.875-0.972-2.207-1.332c-1.619-0.444-2.411-0.995-2.411-2.303c0-1.739,1.379-2.674,3.106-2.674
		c1.188,0,2.231,0.444,2.974,0.947L65.723,22.283z"/>
	<path fill="#FFFFFF" d="M76.402,28.568v-5.637l-2.195,4.197h-0.899l-2.195-4.197v5.637h-1.655v-8.515h1.775l2.519,4.845
		l2.542-4.845h1.763v8.515H76.402z"/>
	<path fill="#FFFFFF" d="M80.786,24.31c0-2.267,1.727-4.317,4.065-4.317c2.411,0,4.018,2.195,4.018,4.341
		c0,2.255-1.703,4.294-4.054,4.294C82.405,28.628,80.786,26.493,80.786,24.31z M84.84,27.165c1.523,0,2.362-1.451,2.362-2.854
		c0-1.475-0.911-2.842-2.375-2.842c-1.523,0-2.375,1.439-2.375,2.842C82.453,25.786,83.34,27.165,84.84,27.165z"/>
	<path fill="#FFFFFF" d="M91.598,28.568v-8.503h1.655v4.15l3.682-4.162h1.715l-3.262,3.778l3.466,4.737h-1.751l-2.71-3.802
		l-1.14,1.235v2.566H91.598z"/>
	<path fill="#FFFFFF" d="M101.042,28.568v-8.503h1.655v8.503H101.042z"/>
	<path fill="#FFFFFF" d="M107.569,23.111v5.457h-1.655v-8.515h1.283l4.438,5.589v-5.577h1.655v8.503h-1.343L107.569,23.111z"/>
	<path fill="#FFFFFF" d="M122.218,27.608c-0.671,0.696-1.403,1.02-2.267,1.02c-2.183,0-3.934-2.087-3.934-4.366
		c0-2.327,1.739-4.27,4.042-4.27c1.547,0,2.687,0.731,3.238,1.859l-1.235,0.912c-0.408-0.84-1.188-1.308-2.063-1.308
		c-1.391,0-2.314,1.319-2.314,2.854c0,1.607,1.02,2.854,2.411,2.854c0.779,0,1.487-0.384,2.123-1.163v-0.6h-1.715V24.19h3.083v4.377
		h-1.368V27.608z"/>
	<path fill="#FFFFFF" d="M67.798,34.453v8.516h-1.643v-3.635h-3.862v3.635h-1.655v-8.516h1.655v3.441h3.862v-3.441H67.798z"/>
	<path fill="#FFFFFF" d="M71.018,42.969v-8.504h1.655v8.504H71.018z"/>
	<path fill="#FFFFFF" d="M80.975,36.684c-0.216-0.24-1.271-0.84-2.291-0.84c-0.899,0-1.355,0.348-1.355,0.96
		c0,0.696,0.66,0.876,1.943,1.212c1.679,0.432,2.735,0.959,2.735,2.518c0,1.836-1.476,2.531-3.154,2.531
		c-1.271,0-2.591-0.408-3.574-1.104l0.731-1.428c0.288,0.288,1.571,1.044,2.867,1.044c0.899,0,1.367-0.312,1.367-0.876
		c0-0.756-0.875-0.971-2.207-1.331c-1.619-0.444-2.411-0.995-2.411-2.303c0-1.739,1.379-2.675,3.106-2.675
		c1.188,0,2.231,0.444,2.974,0.947L80.975,36.684z"/>
	<path fill="#FFFFFF" d="M91.03,35.904h-2.71v7.064h-1.655v-7.064h-2.723v-1.451h7.088V35.904z"/>
	<path fill="#FFFFFF" d="M92.774,38.711c0-2.268,1.727-4.318,4.065-4.318c2.411,0,4.018,2.195,4.018,4.342
		c0,2.255-1.703,4.294-4.054,4.294C94.394,43.028,92.774,40.894,92.774,38.711z M96.828,41.564c1.523,0,2.362-1.451,2.362-2.854
		c0-1.476-0.911-2.843-2.375-2.843c-1.523,0-2.375,1.438-2.375,2.843C94.441,40.186,95.329,41.564,96.828,41.564z"/>
	<path fill="#FFFFFF" d="M103.586,42.969v-8.516h3.766c1.571,0,2.71,1.439,2.71,2.83c0,1.092-0.6,2.087-1.535,2.482l2.003,3.203
		h-1.871l-1.787-2.855h-1.631v2.855H103.586z M105.241,38.662h2.075c0.611,0,1.079-0.611,1.079-1.379
		c0-0.791-0.563-1.379-1.151-1.379h-2.003V38.662z"/>
	<path fill="#FFFFFF" d="M113.558,34.453l2.099,4.102l2.135-4.102h1.787l-3.094,5.541v2.975h-1.643V39.97l-3.082-5.517H113.558z"/>
</g>
<g>
	<path fill="#ED2027" d="M221.212,20.004c1.511,0,2.675,0.756,3.202,1.859l-1.271,0.875c-0.396-0.959-1.259-1.271-1.979-1.271
		c-1.571,0-2.363,1.475-2.363,2.831c0,1.511,0.984,2.878,2.399,2.878c0.731,0,1.606-0.372,1.991-1.295l1.355,0.78
		c-0.517,1.271-2.063,1.979-3.395,1.979c-2.363,0-4.018-2.23-4.018-4.389C217.135,22.175,218.633,20.004,221.212,20.004z"/>
	<path fill="#ED2027" d="M226.53,24.31c0-2.267,1.728-4.317,4.065-4.317c2.41,0,4.018,2.195,4.018,4.341
		c0,2.255-1.703,4.294-4.053,4.294C228.149,28.628,226.53,26.493,226.53,24.31z M230.584,27.165c1.523,0,2.362-1.451,2.362-2.854
		c0-1.475-0.911-2.842-2.374-2.842c-1.523,0-2.375,1.439-2.375,2.842C228.197,25.786,229.084,27.165,230.584,27.165z"/>
	<path fill="#ED2027" d="M242.379,22.283c-0.216-0.24-1.271-0.839-2.291-0.839c-0.899,0-1.355,0.348-1.355,0.959
		c0,0.696,0.66,0.875,1.943,1.211c1.68,0.432,2.734,0.959,2.734,2.519c0,1.835-1.475,2.53-3.154,2.53
		c-1.271,0-2.59-0.408-3.574-1.103l0.732-1.427c0.287,0.288,1.57,1.043,2.866,1.043c0.899,0,1.367-0.312,1.367-0.875
		c0-0.756-0.876-0.972-2.207-1.332c-1.619-0.444-2.411-0.995-2.411-2.303c0-1.739,1.38-2.674,3.107-2.674
		c1.188,0,2.23,0.444,2.974,0.947L242.379,22.283z"/>
	<path fill="#ED2027" d="M252.434,21.504h-2.71v7.064h-1.655v-7.064h-2.723v-1.451h7.088V21.504z"/>
	<path fill="#ED2027" d="M258.427,24.31c0-2.267,1.728-4.317,4.065-4.317c2.41,0,4.018,2.195,4.018,4.341
		c0,2.255-1.703,4.294-4.053,4.294C260.046,28.628,258.427,26.493,258.427,24.31z M262.48,27.165c1.523,0,2.362-1.451,2.362-2.854
		c0-1.475-0.911-2.842-2.374-2.842c-1.523,0-2.375,1.439-2.375,2.842C260.094,25.786,260.98,27.165,262.48,27.165z"/>
	<path fill="#ED2027" d="M269.238,28.568v-8.515h5.721v1.451h-4.066v2.195h3.383v1.343h-3.383v3.526H269.238z"/>
	<path fill="#ED2027" d="M222.723,36.684c-0.215-0.24-1.271-0.84-2.29-0.84c-0.899,0-1.355,0.348-1.355,0.96
		c0,0.696,0.659,0.876,1.942,1.212c1.68,0.432,2.735,0.959,2.735,2.518c0,1.836-1.476,2.531-3.154,2.531
		c-1.271,0-2.591-0.408-3.574-1.104l0.731-1.428c0.288,0.288,1.571,1.044,2.867,1.044c0.898,0,1.367-0.312,1.367-0.876
		c0-0.756-0.876-0.971-2.207-1.331c-1.619-0.444-2.411-0.995-2.411-2.303c0-1.739,1.38-2.675,3.106-2.675
		c1.188,0,2.23,0.444,2.975,0.947L222.723,36.684z"/>
	<path fill="#ED2027" d="M233.402,42.969v-5.637l-2.195,4.197h-0.899l-2.194-4.197v5.637h-1.655v-8.516h1.774l2.52,4.846
		l2.542-4.846h1.763v8.516H233.402z"/>
	<path fill="#ED2027" d="M237.786,38.711c0-2.268,1.728-4.318,4.065-4.318c2.41,0,4.018,2.195,4.018,4.342
		c0,2.255-1.703,4.294-4.053,4.294C239.405,43.028,237.786,40.894,237.786,38.711z M241.84,41.564c1.523,0,2.362-1.451,2.362-2.854
		c0-1.476-0.911-2.843-2.374-2.843c-1.523,0-2.375,1.438-2.375,2.843C239.453,40.186,240.34,41.564,241.84,41.564z"/>
	<path fill="#ED2027" d="M248.598,42.969v-8.504h1.654v4.15l3.683-4.162h1.715l-3.263,3.777l3.467,4.738h-1.751l-2.71-3.803
		l-1.141,1.236v2.566H248.598z"/>
	<path fill="#ED2027" d="M258.041,42.969v-8.504h1.655v8.504H258.041z"/>
	<path fill="#ED2027" d="M264.568,37.512v5.457h-1.654v-8.516h1.283l4.438,5.589v-5.577h1.655v8.504h-1.343L264.568,37.512z"/>
	<path fill="#ED2027" d="M279.219,42.009c-0.672,0.696-1.403,1.02-2.268,1.02c-2.182,0-3.934-2.087-3.934-4.366
		c0-2.326,1.739-4.27,4.042-4.27c1.548,0,2.687,0.732,3.238,1.859l-1.235,0.912c-0.408-0.84-1.188-1.309-2.063-1.309
		c-1.392,0-2.314,1.32-2.314,2.855c0,1.607,1.02,2.854,2.41,2.854c0.779,0,1.487-0.383,2.123-1.162v-0.6h-1.715v-1.212h3.082v4.378
		h-1.367V42.009z"/>
</g>
<g>
	<path fill="#FFFFFF" d="M36.581,34.329v2.179h-7.31v-2.179h2.557v-5.456c-0.414,0.558-1.98,1.314-2.917,1.314v-2.251
		c0.882,0,2.719-1.296,2.917-1.71h2.467v8.103H36.581z"/>
</g>
<g>
	<path fill="#ED2027" d="M185.159,36.508c0-2.143,0.595-3.439,2.827-4.681c1.944-1.081,3.024-1.458,3.024-2.359
		c0-0.72-0.595-1.314-1.675-1.314c-1.152,0-1.926,0.684-2.521,1.386l-1.548-1.782c0.648-0.685,2.34-1.71,4.501-1.71
		c2.448,0,3.871,1.26,3.871,3.061c0,1.693-1.386,2.539-2.431,3.133c-0.846,0.469-2.106,1.152-2.539,2.089h5.168v2.179H185.159z"/>
</g>
</svg>
