<?xml version="1.0" encoding="utf-8"?>
<!-- Generator: Adobe Illustrator 15.0.2, SVG Export Plug-In . SVG Version: 6.00 Build 0)  -->
<!DOCTYPE svg PUBLIC "-//W3C//DTD SVG 1.0//EN" "http://www.w3.org/TR/2001/REC-SVG-20010904/DTD/svg10.dtd">
<svg version="1.0" id="Layer_1" xmlns="http://www.w3.org/2000/svg" xmlns:xlink="http://www.w3.org/1999/xlink" x="0px" y="0px"
	 width="172px" height="40px" viewBox="0 0 172 40" enable-background="new 0 0 172 40" xml:space="preserve">
<polygon fill="#FB0E1D" points="10,40.049 172,40.049 172,0.049 10,0.049 0,19.86 "/>
<g>
	<g>
		<path fill="#FFFFFF" d="M153.086,28.656V12.371c0-0.521-0.424-0.944-0.945-0.944h-12.163c-0.522,0-0.945,0.423-0.945,0.944v16.287
			c0,0.521,0.423,0.945,0.945,0.945h12.163C152.662,29.6,153.086,29.18,153.086,28.656z M142.906,27.43
			c0,0.26-0.213,0.475-0.473,0.475h-1.092c-0.261,0-0.473-0.215-0.473-0.475v-1.092c0-0.26,0.212-0.471,0.473-0.471h1.092
			c0.26,0,0.473,0.211,0.473,0.471V27.43z M142.906,24.627c0,0.26-0.213,0.473-0.473,0.473h-1.092c-0.261,0-0.473-0.213-0.473-0.473
			v-1.09c0-0.26,0.212-0.473,0.473-0.473h1.092c0.26,0,0.473,0.213,0.473,0.473V24.627z M142.906,21.824
			c0,0.26-0.213,0.473-0.473,0.473h-1.092c-0.261,0-0.473-0.213-0.473-0.473v-1.091c0-0.262,0.212-0.474,0.473-0.474h1.092
			c0.26,0,0.473,0.211,0.473,0.474V21.824z M142.906,19.02c0,0.261-0.213,0.473-0.473,0.473h-1.092
			c-0.261,0-0.473-0.212-0.473-0.473v-1.09c0-0.261,0.212-0.473,0.473-0.473h1.092c0.26,0,0.473,0.211,0.473,0.473V19.02z
			 M145.689,27.43c0,0.26-0.211,0.475-0.472,0.475h-1.091c-0.261,0-0.473-0.215-0.473-0.475v-1.092c0-0.26,0.212-0.471,0.473-0.471
			h1.091c0.261,0,0.472,0.211,0.472,0.471V27.43z M145.689,24.627c0,0.26-0.211,0.473-0.472,0.473h-1.091
			c-0.261,0-0.473-0.213-0.473-0.473v-1.09c0-0.26,0.212-0.473,0.473-0.473h1.091c0.261,0,0.472,0.213,0.472,0.473V24.627z
			 M145.689,21.824c0,0.26-0.211,0.473-0.472,0.473h-1.091c-0.261,0-0.473-0.213-0.473-0.473v-1.091
			c0-0.262,0.212-0.474,0.473-0.474h1.091c0.261,0,0.472,0.211,0.472,0.474V21.824z M145.689,19.02c0,0.261-0.211,0.473-0.472,0.473
			h-1.091c-0.261,0-0.473-0.212-0.473-0.473v-1.09c0-0.261,0.212-0.473,0.473-0.473h1.091c0.261,0,0.472,0.211,0.472,0.473V19.02z
			 M148.475,27.43c0,0.26-0.211,0.475-0.473,0.475h-1.088c-0.262,0-0.473-0.215-0.473-0.475v-1.092c0-0.26,0.211-0.471,0.473-0.471
			h1.09c0.262,0,0.473,0.211,0.473,0.471v1.092H148.475z M148.475,24.627c0,0.26-0.211,0.473-0.473,0.473h-1.088
			c-0.262,0-0.473-0.213-0.473-0.473v-1.09c0-0.26,0.211-0.473,0.473-0.473h1.09c0.262,0,0.473,0.213,0.473,0.473v1.09H148.475z
			 M148.475,21.824c0,0.26-0.211,0.473-0.473,0.473h-1.088c-0.262,0-0.473-0.213-0.473-0.473v-1.091
			c0-0.262,0.211-0.474,0.473-0.474h1.09c0.262,0,0.473,0.211,0.473,0.474v1.091H148.475z M148.475,19.02
			c0,0.261-0.211,0.473-0.473,0.473h-1.088c-0.262,0-0.473-0.212-0.473-0.473v-1.09c0-0.261,0.211-0.473,0.473-0.473h1.09
			c0.262,0,0.473,0.211,0.473,0.473v1.09H148.475z M151.26,27.43c0,0.26-0.211,0.475-0.473,0.475h-1.091
			c-0.261,0-0.473-0.215-0.473-0.475v-3.893c0-0.26,0.212-0.473,0.473-0.473h1.091c0.262,0,0.473,0.213,0.473,0.473V27.43z
			 M151.26,21.824c0,0.26-0.211,0.473-0.473,0.473h-1.091c-0.261,0-0.473-0.213-0.473-0.473v-1.091c0-0.262,0.212-0.474,0.473-0.474
			h1.091c0.262,0,0.473,0.211,0.473,0.474V21.824z M151.26,19.02c0,0.261-0.211,0.473-0.473,0.473h-1.091
			c-0.261,0-0.473-0.212-0.473-0.473v-1.09c0-0.261,0.212-0.473,0.473-0.473h1.091c0.262,0,0.473,0.211,0.473,0.473V19.02z
			 M151.26,15.215c0,0.261-0.211,0.472-0.473,0.472h-9.458c-0.261,0-0.473-0.211-0.473-0.472V13.58c0-0.261,0.212-0.473,0.473-0.473
			h9.458c0.262,0,0.473,0.212,0.473,0.473V15.215z"/>
	</g>
</g>
<g>
	<path fill="#FFFFFF" d="M29.651,25.068v-8.516h3.766c1.571,0,2.71,1.439,2.71,2.83c0,1.092-0.6,2.087-1.535,2.482l2.003,3.203
		h-1.871l-1.787-2.855h-1.631v2.855H29.651z M31.306,20.762h2.075c0.611,0,1.079-0.611,1.079-1.379c0-0.792-0.563-1.379-1.151-1.379
		h-2.003V20.762z"/>
	<path fill="#FFFFFF" d="M45.091,23.617v1.451h-5.913v-8.516h5.805v1.451h-4.15v2.051h3.586v1.344h-3.586v2.219H45.091z"/>
	<path fill="#FFFFFF" d="M51.44,16.504c1.511,0,2.675,0.756,3.202,1.859l-1.271,0.875c-0.396-0.959-1.259-1.271-1.979-1.271
		c-1.571,0-2.363,1.475-2.363,2.831c0,1.511,0.983,2.878,2.399,2.878c0.731,0,1.607-0.372,1.991-1.296l1.355,0.78
		c-0.516,1.271-2.063,1.979-3.395,1.979c-2.362,0-4.018-2.23-4.018-4.39C47.363,18.675,48.862,16.504,51.44,16.504z"/>
	<path fill="#FFFFFF" d="M56.363,25.068l3.358-8.516h1.343l3.346,8.516h-1.751l-0.779-2.123h-2.986l-0.78,2.123H56.363z
		 M60.393,18.339l-1.223,3.442h2.411L60.393,18.339z"/>
	<path fill="#FFFFFF" d="M66.767,25.068v-8.516h1.655v7.064h4.342v1.451H66.767z"/>
	<path fill="#FFFFFF" d="M78.849,16.504c1.511,0,2.675,0.756,3.202,1.859l-1.271,0.875c-0.396-0.959-1.259-1.271-1.979-1.271
		c-1.571,0-2.363,1.475-2.363,2.831c0,1.511,0.983,2.878,2.399,2.878c0.731,0,1.607-0.372,1.991-1.296l1.355,0.78
		c-0.516,1.271-2.063,1.979-3.395,1.979c-2.362,0-4.018-2.23-4.018-4.39C74.771,18.675,76.27,16.504,78.849,16.504z"/>
	<path fill="#FFFFFF" d="M90.428,20.895v-4.342h1.643v4.342c0,2.326-1.091,4.233-3.718,4.233c-2.722,0-3.73-2.026-3.73-4.233v-4.342
		h1.655v4.342c0,1.427,0.515,2.77,2.063,2.77C89.924,23.664,90.428,22.285,90.428,20.895z"/>
	<path fill="#FFFFFF" d="M95.171,25.068v-8.516h1.655v7.064h4.341v1.451H95.171z"/>
	<path fill="#FFFFFF" d="M102.814,25.068l3.357-8.516h1.344l3.346,8.516h-1.751l-0.779-2.123h-2.986l-0.779,2.123H102.814z
		 M106.844,18.339l-1.224,3.442h2.411L106.844,18.339z"/>
	<path fill="#FFFFFF" d="M118.794,18.004h-2.71v7.064h-1.655v-7.064h-2.723v-1.451h7.088V18.004z"/>
	<path fill="#FFFFFF" d="M127.218,23.617v1.451h-5.912v-8.516h5.805v1.451h-4.149v2.051h3.586v1.344h-3.586v2.219H127.218z"/>
</g>
<path fill="#FFFFFF" d="M74.333-18"/>
</svg>
